<svg width="136.375" height="128" xmlns="http://www.w3.org/2000/svg">
 <defs>
  <style type="text/css">
   <![CDATA[
@font-face { font-family: ifont; src: url("http://at.alicdn.com/t/font_1442373896_4754455.eot?#iefix") format("embedded-opentype"), url("http://at.alicdn.com/t/font_1442373896_4754455.woff") format("woff"), url("http://at.alicdn.com/t/font_1442373896_4754455.ttf") format("truetype"), url("http://at.alicdn.com/t/font_1442373896_4754455.svg#ifont") format("svg"); }

]]>
  </style>
 </defs>
 <g>
  <title>background</title>
  <rect fill="none" id="canvas_background" height="402" width="582" y="-1" x="-1"/>
 </g>
 <g>
  <title>Layer 1</title>
  <g id="svg_1" class="transform-group">
   <g id="svg_2" transform="scale(0.125) ">
    <path id="svg_3" fill="#9d55b8" d="m435.76628,910.53114l-5.4554,-0.15256c-46.86789,-1.29016 -90.10082,-20.78327 -121.87341,-54.90806c-25.56175,-27.5318 -41.18438,-62.03431 -45.12447,-99.80591l-0.98947,-9.25034l103.97559,-74.85443c2.50478,-181.33035 84.86465,-541.49222 129.5329,-637.50615c8.19274,-17.67118 17.90374,-34.05073 33.45083,-34.05073l6.6715,0l6.07012,5.38579c15.16493,15.16641 21.30911,98.43872 20.17004,575.09117l-0.15109,87.28943c0,134.76315 -41.32954,186.56653 -76.06904,206.28183l-50.2081,36.47996l0,0zm-139.0854,-149.02749c4.5474,27.07854 16.68171,51.87893 35.41643,71.89788c24.57376,26.4653 57.71649,42.09386 93.7343,44.4431l42.70117,-30.94308c23.81092,-13.64962 61.20037,-53.54532 61.20037,-179.05666l0.07554,-87.36497c0.45622,-158.20229 1.06353,-433.95573 -7.65505,-526.09918c-44.59419,104.20074 -123.54572,460.04035 -123.54572,625.52144l0,8.41936l-6.97664,4.78145l-94.9504,68.40066l0,0zm0,0m354.69904,146.37163l-57.86609,-41.86427c-13.41855,-9.78358 -23.88498,-22.74887 -31.24526,-38.67812c-20.92843,-36.17482 -31.85257,-90.24747 -31.85257,-159.56502l-0.15109,-87.8212c-1.05908,-476.19326 5.08065,-559.39151 20.17596,-574.5594l4.69849,-4.77848l8.04313,-0.60731c15.54709,0 25.25069,16.37955 33.44342,34.05073c44.7438,96.31463 127.33474,457.91625 129.5329,638.72077l66.28546,47.70035l0.45178,7.73799c2.65586,47.47372 -13.64962,92.74928 -45.80288,127.33474c-23.89091,25.63729 -54.53331,43.15146 -88.58552,50.81243l-7.12773,1.51679l0,0zm-81.06971,-853.49454c-8.72598,92.06791 -8.04313,367.51473 -7.73651,525.49187l0.15109,87.97376c0,63.55258 9.47697,112.16833 28.28871,144.70227c5.61241,12.13431 12.66607,20.85289 21.46019,27.2237l45.88435,33.21827c24.87446,-6.97812 47.24858,-20.55219 64.9953,-39.58908c24.49822,-26.24016 37.61608,-60.06426 37.46499,-95.93839l-66.96831,-48.15953l0,-8.26236c0.07554,-166.5461 -78.87007,-522.38423 -123.53981,-626.66051l0,0zm0,0m496.29072,969.60297l-254.74354,0l-181.18075,-131.12523l31.92812,-9.1748c26.77192,-7.66097 50.66283,-22.29561 69.24201,-42.32049c26.24016,-28.21316 40.64669,-64.9953 40.57263,-103.82006l-0.07555,-31.62742l208.10228,149.93696c33.67449,24.26567 140.45704,107.69055 102.08405,160.77816l-3.94602,5.38579l-11.98323,1.96709l0,0zm-244.20156,-32.30287l235.93921,0c1.35978,-21.23653 -39.51354,-68.25847 -96.69678,-109.58949l-159.18731,-114.66866c-5.76351,35.86821 -21.9179,69.16795 -46.8679,96.00949c-15.54709,16.76022 -34.1322,30.3343 -54.83548,40.27045l121.64826,87.97821l0,0zm0,0m-543.5378,32.30287l-266.72825,-1.89155l-3.94602,-5.38726c-38.29744,-53.01208 68.33401,-136.51102 101.92852,-160.77816l170.48768,-122.63033l3.79494,26.39125c4.3978,30.78607 17.89633,59.00072 39.05584,81.74959c24.6493,26.6238 58.16826,43.38402 94.26755,47.39966l41.56061,4.70442l-180.42087,130.44238l0,0zm-20.93584,-234.56906l-128.77598,92.67522c-57.33433,41.48062 -98.2121,88.73067 -96.61532,109.81464l235.93328,-0.22367l108.90664,-78.80045c-29.50332,-9.62806 -56.19526,-26.61787 -77.4303,-49.52524c-19.79381,-21.1595 -34.05666,-46.41019 -42.01832,-73.9405l0,0zm0,0"/>
   </g>
  </g>
  <ellipse stroke="#000" ry="41.999998" rx="12.5" id="svg_4" cy="47.499999" cx="68.6875" fill-opacity="null" stroke-opacity="null" stroke-width="0" fill="#9d55b8"/>
  <ellipse stroke="#000" ry="34.000001" rx="17.000001" id="svg_5" cy="62.499999" cx="68.187499" fill-opacity="null" stroke-opacity="null" stroke-width="0" fill="#9d55b8"/>
  <ellipse stroke="#000" ry="23.5" rx="9" id="svg_6" cy="82" cx="58.1875" fill-opacity="null" stroke-opacity="null" stroke-width="0" fill="#9d55b8"/>
  <ellipse stroke="#000" ry="24.5" rx="9" id="svg_7" cy="80.999999" cx="78.1875" fill-opacity="null" stroke-opacity="null" stroke-width="0" fill="#9d55b8"/>
  <rect stroke="#000" transform="rotate(37.27196502685547 94.87403869628906,105.59786987304688) " id="svg_9" height="24.190047" width="43.189925" y="93.502847" x="73.279077" fill-opacity="null" stroke-opacity="null" stroke-width="0" fill="#9d55b8"/>
  <rect stroke="#000" transform="rotate(-41.77338409423828 44.02179336547853,102.75474548339844) " id="svg_10" height="25.174616" width="42.9634" y="90.167443" x="22.54009" fill-opacity="null" stroke-opacity="null" stroke-width="0" fill="#9d55b8"/>
  <rect id="svg_11" height="20" width="17" y="107.5" x="17.1875" fill-opacity="null" stroke-opacity="null" stroke-width="0" stroke="#000" fill="#9d55b8"/>
  <rect id="svg_12" height="16" width="16" y="108.5" x="104.1875" fill-opacity="null" stroke-opacity="null" stroke-width="0" stroke="#000" fill="#9d55b8"/>
  <rect stroke="#000" id="svg_13" height="16.000001" width="10" y="109.499999" x="11.1875" fill-opacity="null" stroke-opacity="null" stroke-width="0" fill="#9d55b8"/>
  <rect id="svg_15" height="15" width="7" y="110.5" x="119.1875" fill-opacity="null" stroke-opacity="null" stroke-width="0" stroke="#000" fill="#9d55b8"/>
  <rect stroke="#000" id="svg_16" height="11" width="8" y="113.5" x="7.1875" fill-opacity="null" stroke-opacity="null" stroke-width="0" fill="#9d55b8"/>
  <rect id="svg_17" height="9" width="6" y="115.5" x="125.1875" fill-opacity="null" stroke-opacity="null" stroke-width="0" stroke="#000" fill="#9d55b8"/>
  <rect id="svg_18" height="6" width="4" y="118.5" x="4.1875" fill-opacity="null" stroke-opacity="null" stroke-width="0" stroke="#000" fill="#9d55b8"/>
  <rect id="svg_20" height="3" width="2" y="120.5" x="3.1875" fill-opacity="null" stroke-opacity="null" stroke-width="0" stroke="#000" fill="#9d55b8"/>
  <rect id="svg_22" height="2" width="1" y="121.5" x="130.1875" fill-opacity="null" stroke-opacity="null" stroke-width="0" stroke="#000" fill="#9d55b8"/>
  <rect id="svg_23" height="6" width="1" y="118.5" x="131.1875" fill-opacity="null" stroke-opacity="null" stroke-width="0" stroke="#000" fill="#9d55b8"/>
 </g>
</svg>